<svg xmlns="http://www.w3.org/2000/svg" viewBox="0 0 1000 1000"><defs><style>.cls-1{fill:#8c52ff;}</style></defs><g id="Layer_2" data-name="Layer 2"><g id="Layer_1-2" data-name="Layer 1"><path class="cls-1" d="M937.15,742.87a497.84,497.84,0,0,0,40-92.87H730.51A274.77,274.77,0,0,1,500,775c-151.88,0-275-123.12-275-275S348.12,225,500,225A274.77,274.77,0,0,1,730.51,350H977.1C913.39,147.15,723.88,0,500,0,223.86,0,0,223.86,0,500s223.86,500,500,500a497.72,497.72,0,0,0,242.87-62.85L974.8,999.3a20,20,0,0,0,24.5-24.5Z"/></g></g></svg>