<svg xmlns="http://www.w3.org/2000/svg" viewBox="0 0 1000 1000"><defs><style>.cls-1{fill:#fff;}</style></defs><g id="Layer_2" data-name="Layer 2"><g id="Layer_1-2" data-name="Layer 1"><path class="cls-1" d="M997.78,970.92,907,790.52A498.21,498.21,0,0,0,977.1,650H730.51A274.77,274.77,0,0,1,500,775c-151.88,0-275-123.12-275-275S348.12,225,500,225A274.77,274.77,0,0,1,730.51,350H977.1C913.39,147.15,723.88,0,500,0,223.86,0,0,223.86,0,500s223.86,500,500,500a497.67,497.67,0,0,0,290.52-93l180.4,90.8C988.14,1006.44,1006.44,988.14,997.78,970.92Z"/></g></g></svg>