<svg xmlns="http://www.w3.org/2000/svg" xmlns:xlink="http://www.w3.org/1999/xlink" viewBox="0 0 2000 2000"><defs><style>.cls-1{fill:#5689c0;}.cls-2{fill:url(#linear-gradient);}</style><linearGradient id="linear-gradient" x1="1000" y1="1000" x2="2000" y2="1000" gradientUnits="userSpaceOnUse"><stop offset="0" stop-color="#5689c0"/><stop offset="1" stop-color="#fff"/></linearGradient></defs><g id="Layer_2" data-name="Layer 2"><g id="Layer_1-2" data-name="Layer 1"><path class="cls-1" d="M1000,1500c-276.14,0-500-223.86-500-500s223.86-500,500-500h866.2C1693.3,201.1,1370.14,0,1000,0,447.72,0,0,447.72,0,1000S447.72,2000,1000,2000c370.14,0,693.3-201.1,866.2-500Z"/><path class="cls-2" d="M1866.2,500H1000c276.14,0,500,223.86,500,500s-223.86,500-500,500h866.2c85.09-147.09,133.8-317.85,133.8-500S1951.29,647.09,1866.2,500Z"/></g></g></svg>